<svg width="61" height="61" viewBox="0 0 61 61" fill="none" xmlns="http://www.w3.org/2000/svg">
<g clip-path="url(#clip0_101_2)">
<path d="M60.6214 45.0631C58.3296 35.2957 51.1949 21.6871 29.6157 18.8121V10.1991C29.6157 8.40361 28.5284 6.7858 26.8684 6.10129C25.2085 5.41546 23.2984 5.79984 22.0308 7.07145L2.43665 26.763C0.147484 29.064 0.146168 32.7814 2.43533 35.0824L22.0308 54.774C23.2958 56.0456 25.2098 56.4299 26.8697 55.7441C28.5297 55.0583 29.617 53.4405 29.617 51.6463V43.3123C36.9794 43.3216 47.5933 44.2904 55.144 48.9898C56.3985 49.7718 57.9979 49.7204 59.1984 48.8569C60.3963 47.9986 60.9597 46.5006 60.6214 45.0631Z" fill="black"/>
</g>
<defs>
<clipPath id="clip0_101_2">
<rect width="60" height="60" fill="white" transform="translate(0.71875 0.922607)"/>
</clipPath>
</defs>
</svg>
