<svg width="332" height="333" viewBox="0 0 332 333" fill="none" xmlns="http://www.w3.org/2000/svg">
<path fill-rule="evenodd" clip-rule="evenodd" d="M357.087 183.158C361.48 188.908 361.837 196.741 357.956 202.669L297.338 295.209L178.244 139.3L176.422 136.915L230.827 53.8558C237.043 44.3522 250.853 44.0835 257.92 53.3354L357.087 183.158ZM152.02 159.332L271.114 315.241L165.888 349.384C159.148 351.568 151.685 349.164 147.292 343.414L48.125 213.591C41.0577 204.339 44.9494 191.086 55.7533 187.589L150.198 156.947L152.02 159.332ZM215.291 15.5494L148.733 118.851C146.699 122.004 143.631 124.348 140.053 125.481L22.8824 162.524C1.12207 169.4 -6.81037 196.037 7.37547 214.608L128.166 372.739C136.993 384.294 152.014 389.09 165.493 384.637L303.473 339.12C306.92 337.98 309.858 335.736 311.865 332.71L392.072 211.561C399.914 199.728 399.237 183.974 390.411 172.419L269.62 14.2882C255.434 -4.28289 227.649 -3.63601 215.291 15.5494Z" fill="#2B5E62" fill-opacity="0.32"/>
</svg>
