<svg width="269" height="263" viewBox="0 0 269 263" fill="none" xmlns="http://www.w3.org/2000/svg">
<path fill-rule="evenodd" clip-rule="evenodd" d="M60.8233 10.382C47.159 4.69026 31.2089 11.2599 25.5171 24.9241L-50.618 207.701C-56.3097 221.365 -49.7401 237.316 -36.0759 243.007L146.701 319.142C160.365 324.834 176.316 318.265 182.007 304.6L258.142 121.823C263.834 108.159 257.265 92.2089 243.6 86.5171L60.8233 10.382ZM53.9019 26.9981L236.679 103.133C241.425 105.11 243.503 110.156 241.526 114.902L165.391 297.679C163.414 302.425 158.369 304.503 153.623 302.526L-29.1545 226.391C-33.9009 224.414 -35.9789 219.369 -34.0019 214.623L42.1332 31.8455C44.1103 27.0991 49.1555 25.0211 53.9019 26.9981Z" fill="#2B5E62" fill-opacity="0.32"/>
<path fill-rule="evenodd" clip-rule="evenodd" d="M71.9063 53.9966C62.8447 50.222 52.1434 54.6297 48.3688 63.6913L37.9868 88.6154C34.2122 97.677 38.6199 108.378 47.6815 112.153L180.611 167.524C189.672 171.299 200.374 166.891 204.148 157.829L214.53 132.905C218.305 123.844 213.897 113.142 204.835 109.368L71.9063 53.9966ZM64.985 70.6126L197.914 125.984L187.532 150.908L54.6029 95.5368L64.985 70.6126Z" fill="#2B5E62" fill-opacity="0.32"/>
<path fill-rule="evenodd" clip-rule="evenodd" d="M102.377 144.686C93.3157 140.912 82.6143 145.32 78.8398 154.381L71.9184 170.997C68.1438 180.059 72.5515 190.76 81.6131 194.535L98.2293 201.456C107.291 205.231 117.992 200.823 121.767 191.761L128.688 175.145C132.463 166.084 128.055 155.382 118.993 151.608L102.377 144.686ZM95.4559 161.303L112.072 168.224L105.151 184.84L88.5345 177.919L95.4559 161.303Z" fill="#2B5E62" fill-opacity="0.32"/>
<path fill-rule="evenodd" clip-rule="evenodd" d="M160.534 168.911C151.472 165.137 140.771 169.544 136.996 178.606L105.85 253.378C102.075 262.44 106.483 273.141 115.545 276.916L132.161 283.837C141.222 287.612 151.924 283.204 155.698 274.143L186.844 199.37C190.619 190.308 186.211 179.607 177.15 175.833L160.534 168.911ZM153.612 185.527L170.228 192.449L139.082 267.221L122.466 260.3L153.612 185.527Z" fill="#2B5E62" fill-opacity="0.32"/>
<path fill-rule="evenodd" clip-rule="evenodd" d="M44.2208 120.462C35.1592 116.687 24.4579 121.095 20.6834 130.156L13.762 146.773C9.98741 155.834 14.3951 166.535 23.4567 170.31L40.0728 177.231C49.1344 181.006 59.8358 176.598 63.6103 167.537L70.5317 150.921C74.3063 141.859 69.8986 131.158 60.837 127.383L44.2208 120.462ZM37.2995 137.078L53.9156 143.999L46.9942 160.615L30.3781 153.694L37.2995 137.078Z" fill="#2B5E62" fill-opacity="0.32"/>
<path fill-rule="evenodd" clip-rule="evenodd" d="M78.1522 202.843C69.0906 199.068 58.3893 203.476 54.6147 212.537L47.6933 229.153C43.9188 238.215 48.3265 248.916 57.3881 252.691L74.0042 259.612C83.0658 263.387 93.7671 258.979 97.5417 249.918L104.463 233.302C108.238 224.24 103.83 213.539 94.7683 209.764L78.1522 202.843ZM71.2308 219.459L87.8469 226.38L80.9256 242.996L64.3094 236.075L71.2308 219.459Z" fill="#2B5E62" fill-opacity="0.32"/>
<path fill-rule="evenodd" clip-rule="evenodd" d="M19.9958 178.618C10.9342 174.843 0.232924 179.251 -3.54165 188.313L-10.463 204.929C-14.2376 213.99 -9.82988 224.692 -0.76828 228.466L15.8478 235.388C24.9094 239.162 35.6108 234.754 39.3853 225.693L46.3067 209.077C50.0813 200.015 45.6736 189.314 36.612 185.539L19.9958 178.618ZM13.0745 195.234L29.6906 202.155L22.7692 218.771L6.15309 211.85L13.0745 195.234Z" fill="#2B5E62" fill-opacity="0.32"/>
</svg>
