<svg width="87" height="88" viewBox="0 0 87 88" fill="none" xmlns="http://www.w3.org/2000/svg">
<path d="M85.3541 40.1115L47.2916 1.6115C46.2299 0.537625 44.8379 0 43.4473 0C42.0567 0 40.6647 0.537625 39.603 1.6115L1.54048 40.1115C-0.582859 42.2648 -0.476828 45.6335 1.64652 47.7812C3.7753 49.94 6.88691 50.2576 9.01705 48.103L10.874 46.2234V82.5C10.874 85.5401 13.3059 88 16.3115 88H38.0615V66H48.9365V88H70.6865C73.692 88 76.124 85.5401 76.124 82.5V46.3306L77.7484 47.9737C79.8717 50.1215 83.1166 49.929 85.2467 47.7799C87.3714 45.6335 87.4829 42.2593 85.3541 40.1115Z" fill="#231F20"/>
</svg>
