<svg width="198" height="199" viewBox="0 0 198 199" fill="none" xmlns="http://www.w3.org/2000/svg">
    <path d="M0 0H198V199H0V0Z" fill="#4DA1A7"/>
    <path d="M136.997 153.574C133.937 155.818 129.653 157.705 124.145 159.235C118.739 160.663 111.701 161.377 103.031 161.377C94.463 161.377 86.303 160.663 78.551 159.235C70.799 157.807 65.24 156.226 61.874 154.492C58.508 152.758 56.825 151.075 56.825 149.443C56.825 143.731 57.641 137.815 59.273 131.695C60.905 125.473 62.843 122.362 65.087 122.362C65.495 122.362 69.728 123.739 77.786 126.493C85.844 129.247 91.913 130.624 95.993 130.624C100.073 130.624 102.725 130.216 103.949 129.4C105.173 128.482 105.785 127.207 105.785 125.575C105.785 123.943 104.663 122.515 102.419 121.291C100.175 119.965 97.37 118.843 94.004 117.925C90.638 116.905 86.966 115.477 82.988 113.641C79.112 111.805 75.491 109.765 72.125 107.521C68.759 105.277 65.954 102.115 63.71 98.035C61.466 93.853 60.344 89.11 60.344 83.806C60.344 61.162 73.859 49.84 100.889 49.84C110.987 49.84 119.708 50.503 127.052 51.829C134.396 53.053 139.547 54.481 142.505 56.113C145.565 57.643 147.095 59.173 147.095 60.703C147.095 66.007 145.82 71.719 143.27 77.839C140.822 83.959 138.425 87.019 136.079 87.019C135.671 87.019 134.345 86.56 132.101 85.642C125.369 82.684 119.759 81.205 115.271 81.205C110.885 81.205 107.876 81.613 106.244 82.429C104.714 83.245 103.949 84.52 103.949 86.254C103.949 87.886 105.071 89.263 107.315 90.385C109.559 91.405 112.313 92.374 115.577 93.292C118.943 94.108 122.564 95.434 126.44 97.27C130.418 99.004 134.09 101.095 137.456 103.543C140.822 105.889 143.627 109.255 145.871 113.641C148.115 118.027 149.237 123.127 149.237 128.941C149.237 135.061 147.656 140.62 144.494 145.618C142.556 148.678 140.057 151.33 136.997 153.574Z"
          fill="#FFFAFA"/>
</svg>
