<svg width="248" height="259" viewBox="0 0 248 259" fill="none" xmlns="http://www.w3.org/2000/svg">
<path fill-rule="evenodd" clip-rule="evenodd" d="M200.397 -27.4717C218.762 -46.999 249.48 -47.941 269.006 -29.5761L271.866 -26.8867C291.394 -8.52181 292.336 22.1959 273.971 41.7231L246.738 70.6797L92.3584 234.83C90.3494 236.965 87.7976 238.515 84.976 239.314L20.7861 257.469C15.3175 259.016 9.43825 257.579 5.29842 253.687C1.15853 249.793 -0.635006 244.013 0.57376 238.46L14.7612 173.278C15.3849 170.413 16.7755 167.771 18.7843 165.634L174.065 0.526378L200.397 -27.4717ZM246.838 -6.00477C240.329 -12.1264 230.089 -11.8123 223.968 -5.30329L208.511 11.1328L234.465 36.4975L250.399 19.5547C256.521 13.0457 256.207 2.80641 249.698 -3.31535L246.838 -6.00477ZM212.292 60.0732L186.338 34.7086L45.426 184.539L37.9266 218.994L71.857 209.397L212.292 60.0732Z" fill="#2B5E62" fill-opacity="0.32"/>
</svg>
