<svg width="50" height="50" viewBox="0 0 50 50" fill="none" xmlns="http://www.w3.org/2000/svg">
<path d="M49.1125 22.7906L27.2115 0.915625C26.6006 0.305469 25.7996 0 24.9994 0C24.1993 0 23.3983 0.305469 22.7874 0.915625L0.88639 22.7906C-0.335375 24.0141 -0.274365 25.9281 0.9474 27.1484C2.17229 28.375 3.96271 28.5555 5.18838 27.3312L6.25684 26.2633V46.875C6.25684 48.6023 7.65616 50 9.38556 50H21.9004H28.1579H40.6728C42.4022 50 43.8015 48.6023 43.8015 46.875V26.3242L44.7362 27.2578C45.958 28.4781 47.825 28.3687 49.0507 27.1477C50.2733 25.9281 50.3374 24.0109 49.1125 22.7906Z" fill="#292325" fill-opacity="0.8"/>
</svg>
